<svg xmlns="http://www.w3.org/2000/svg" xmlns:xlink="http://www.w3.org/1999/xlink" width="88.438" height="86.991" viewBox="0 0 88.438 86.991">
  <defs>
    <linearGradient id="linear-gradient" x1="0.5" x2="0.5" y2="1" gradientUnits="objectBoundingBox">
      <stop offset="0" stop-color="#ceb0fa"/>
      <stop offset="0.456" stop-color="#82a9f8"/>
      <stop offset="1" stop-color="#a5fcf4"/>
    </linearGradient>
  </defs>
  <g id="Group_10" data-name="Group 10" transform="translate(-977.048 -600.592)">
    <g id="_161616ff" data-name="#161616ff" transform="translate(972.573 597.729)">
      <path id="Path_8" data-name="Path 8" d="M54.021,11.96c.658,2.969.914,6.011,1.48,9a129.87,129.87,0,0,0,2.645,13.675c.937,3.249,2.232,6.624,4.923,8.831,3.061,2.5,7.04,3.32,10.8,4.178,2.879.507,5.75,1.073,8.645,1.482,3.459.649,6.963,1.061,10.4,1.821-6.524,1.253-13.126,2.073-19.64,3.395-3.651.825-7.5,1.712-10.414,4.217-2.6,2.249-3.825,5.585-4.754,8.792A136.332,136.332,0,0,0,55.487,81c-.568,2.94-.8,5.94-1.468,8.858-.278-2.24-.67-4.462-1.029-6.689-.311-2.708-.889-5.374-1.271-8.069a59.721,59.721,0,0,0-2.883-11.353A13.213,13.213,0,0,0,44.7,58.07a22.136,22.136,0,0,0-8.662-3.457c-2.643-.662-5.347-1.015-8.019-1.532-2.737-.37-5.445-.919-8.18-1.3-1.612-.219-3.194-.645-4.812-.791,3.917-.833,7.888-1.365,11.831-2.046,2.413-.338,4.793-.862,7.2-1.251,3.789-.839,7.785-1.649,10.906-4.107,2.887-2.317,4.261-5.925,5.159-9.4.645-2.138.958-4.353,1.441-6.528C52.432,22.426,53.284,17.2,54.021,11.96Z" transform="translate(0 0)" fill="url(#linear-gradient)"/>
    </g>
    <g id="_161616ff-2" data-name="#161616ff" transform="translate(962.018 588.632)">
      <path id="Path_8-2" data-name="Path 8" d="M30.954,11.96c.269,1.212.373,2.455.6,3.675a53.042,53.042,0,0,0,1.08,5.585,6.981,6.981,0,0,0,2.011,3.607,10.366,10.366,0,0,0,4.41,1.706c1.176.207,2.348.438,3.531.605,1.413.265,2.844.433,4.248.744-2.665.512-5.361.847-8.021,1.386a9.5,9.5,0,0,0-4.253,1.722,7.225,7.225,0,0,0-1.942,3.591,55.679,55.679,0,0,0-1.07,5.574c-.232,1.2-.325,2.426-.6,3.618-.113-.915-.274-1.822-.42-2.732-.127-1.106-.363-2.195-.519-3.3a24.391,24.391,0,0,0-1.178-4.637,5.4,5.4,0,0,0-1.687-2.317,9.041,9.041,0,0,0-3.538-1.412c-1.079-.27-2.184-.414-3.275-.626-1.118-.151-2.224-.375-3.341-.533-.658-.09-1.3-.263-1.965-.323,1.6-.34,3.221-.558,4.832-.836.986-.138,1.958-.352,2.939-.511a10.7,10.7,0,0,0,4.454-1.677,6.977,6.977,0,0,0,2.107-3.84c.263-.873.391-1.778.588-2.666C30.306,16.234,30.653,14.1,30.954,11.96Z" transform="translate(0 0)" fill="url(#linear-gradient)"/>
    </g>
  </g>
</svg>
